<svg xmlns="http://www.w3.org/2000/svg" viewBox="0 0 442.53 131.41"><defs><style>.cls-1{fill:#8ebf47;}.cls-2{fill:#fff;}</style></defs><g id="Livello_2" data-name="Livello 2"><g id="Livello_3" data-name="Livello 3"><path class="cls-1" d="M2.48,112h9.83c4.42,0,7.36,2.24,7.36,6s-2.76,6.21-7.43,6.21H7.12V131H2.48Zm4.64,8.61h4.77c1.95,0,3.18-.67,3.18-2.56,0-1.54-.94-2.49-3.18-2.49H7.12Z" transform="translate(-2.48)"/><path class="cls-1" d="M56.77,112h4.62V127.3H72l-.61,3.7H56.77Z" transform="translate(-2.48)"/><path class="cls-1" d="M114,126.69,112.33,131h-4.74l7.65-19h5.92l8.05,19h-5l-1.77-4.31Zm7.17-3.7c-1.77-4.36-2.63-6.58-3.08-8h0c-.42,1.42-1.43,4.31-2.86,8Z" transform="translate(-2.48)"/><path class="cls-1" d="M167.79,115.66H161.1V112h18v3.67H172.4V131h-4.61Z" transform="translate(-2.48)"/><path class="cls-1" d="M215.92,112h15.64v3.67h-11V120h10.29v3.7H220.53V131h-4.61Z" transform="translate(-2.48)"/><path class="cls-1" d="M288.44,121.43c0,5.27-3.51,10-10.43,10-6.45,0-10.13-4.41-10.13-10,0-5.23,3.9-9.87,10.34-9.87C284.86,111.58,288.44,116.25,288.44,121.43Zm-15.7,0c0,3.6,1.83,6.41,5.53,6.41s5.31-3.23,5.31-6.32c0-3.36-1.65-6.29-5.49-6.29S272.74,118.19,272.74,121.39Z" transform="translate(-2.48)"/><path class="cls-1" d="M330.71,123.68V131h-4.56V112H336.5c4.39,0,6.89,2.16,6.89,5.43a4.45,4.45,0,0,1-3.3,4.5c.77.3,2.82,1,2.82,4.47v1a15.71,15.71,0,0,0,.23,3.66h-4.73a12,12,0,0,1-.36-4v-.62c0-1.92-.7-2.72-3.47-2.72Zm0-3.47h4.76c2.24,0,3.21-.8,3.21-2.41s-1-2.35-3.17-2.35h-4.8Z" transform="translate(-2.48)"/><path class="cls-1" d="M398.61,123.72c0-3.28,0-6.69.14-8.79h0c-1,3.51-2.73,9.08-5,16.07h-4.06c-1.74-6.13-3.74-12.47-4.75-16.07h0c.14,2.21.32,5.9.32,9.14V131h-4.16V112h6.67c1.91,5.89,3.66,11.05,4.23,13.65h0c.81-3,2.52-8,4.38-13.65h6.69v19h-4.45Z" transform="translate(-2.48)"/><polygon class="cls-1" points="365.63 21.11 365.63 21.11 376.18 10.55 365.63 21.11"/><polygon class="cls-1" points="421.42 76.91 431.98 66.35 421.42 76.91 421.42 76.91"/><polygon class="cls-1" points="442.53 55.8 442.53 7.84 421.42 28.95 421.42 76.91 442.53 55.8"/><polygon class="cls-1" points="442.53 55.8 442.53 55.8 431.98 66.35 442.53 55.8"/><polygon class="cls-1" points="365.63 21.11 413.59 21.11 434.7 0 386.74 0 365.63 21.11"/><path class="cls-2" d="M40.09,75H40c-2-8.13-9.77-29.13-17.23-50.07H2.64V91.34H15.28V66.26c0-11.28-.52-24.56-1-32.24h.09C17.9,45.93,26.7,70.84,33.12,91.34H45.36C53.72,67.44,61.66,45.53,65,34h.09c-.38,7.2-.44,19.14-.44,30.89V91.34H78.1V24.93H57.85C50.76,44.88,43,65.25,40.09,75Z" transform="translate(-2.48)"/><polygon class="cls-2" points="105.5 24.93 91.58 24.93 91.58 91.34 132.28 91.34 143.61 80.01 105.5 80.01 105.5 24.93"/><path class="cls-2" d="M200.41,82.46c-8.8,0-12.86-6.86-12.86-15.39,0-8.79,4.28-15.18,12.9-15.18,7.38,0,10.18,4.14,11.33,7.35h13.3c-.72-5.68-6.46-17.48-24.69-17.48-17.08,0-26.4,12.16-26.4,25.43,0,13.82,8.22,25.47,26.35,25.47,15.16,0,22.93-8.24,25-17.24H212C209.94,80,206.64,82.46,200.41,82.46Z" transform="translate(-2.48)"/><path class="cls-2" d="M280.75,77.28V43.07H267.44V65.23c0,12-3.29,16.88-11.64,16.88-7.08,0-9.59-5-9.59-11.66V43.07H232.9V72.7c0,14.17,7.91,20,18,20s14.15-3.43,16.57-7.75c.06,2.52.12,5.12.31,6.43h13C280.68,86.67,280.75,82,280.75,77.28Z" transform="translate(-2.48)"/><path class="cls-2" d="M322.23,41.76c-9.53,0-14.19,4.09-16.61,7.23V21.11h-13.3v54c0,5.39,0,9.56-.1,16.26h12.72c.13-1.31.19-4.49.22-6.09,2.34,3.68,6.6,7.41,16.2,7.41,13.64,0,24.27-9.93,24.27-26.37C345.63,52,335.46,41.76,322.23,41.76ZM318.64,82c-8.6,0-13.39-6.15-13.39-14.86s4.23-14.87,13.49-14.87,13.2,7.31,13.2,14.57C331.94,75.08,327.8,82,318.64,82Z" transform="translate(-2.48)"/><path class="cls-2" d="M363.77,73.1a15.24,15.24,0,0,0,14,9.49c6.32.1,9.5-2.18,11.52-5.68h13.31c-2.81,8.11-9.93,15.75-25.09,15.75-19,0-26.35-13-26.35-25.36,0-13.91,9.32-25.54,26.2-25.54,18.64,0,25.86,13.08,25.86,25.41,0,1.09,0,1.89-.07,3.24H363.89L372.32,62h17.33c-.34-4.33-2.66-10.68-12.31-10.68-8.61,0-12.49,6.66-13.5,10.48S362.58,69.89,363.77,73.1Z" transform="translate(-2.48)"/><path class="cls-2" d="M363.89,70.41,372.32,62Z" transform="translate(-2.48)"/></g></g></svg>