<svg width="1280" height="720" xmlns="http://www.w3.org/2000/svg" xmlns:xlink="http://www.w3.org/1999/xlink" overflow="hidden"><g><rect x="0" y="0" width="1280" height="720" fill="#FFFFFF"/><text font-family="Poppins,Poppins_MSFontService,sans-serif" font-weight="400" font-size="128" transform="translate(85.2995 274)">.</text><path d="M151 264 316.796 264 316.796 268 151 268ZM314.796 260 326.796 266 314.796 272Z"/><text font-family="Poppins,Poppins_MSFontService,sans-serif" font-weight="400" font-size="21" transform="translate(172.192 242)">Initial</text><text font-family="Poppins,Poppins_MSFontService,sans-serif" font-weight="400" font-size="21" transform="translate(234.526 242)">state</text><rect x="349.5" y="226.5" width="118" height="76" stroke="#172C51" stroke-width="1.33333" stroke-miterlimit="8" fill="#4D9610" fill-opacity="0.458824"/><text font-family="Calibri,Calibri_MSFontService,sans-serif" font-weight="400" font-size="24" transform="translate(393.826 272)">O</text><text font-family="Calibri,Calibri_MSFontService,sans-serif" font-weight="400" font-size="24" transform="translate(409.66 272)">K</text><rect x="641.5" y="226.5" width="159" height="76" stroke="#172C51" stroke-width="1.33333" stroke-miterlimit="8" fill="#FAFA00" fill-opacity="0.454902"/><text font-family="Calibri,Calibri_MSFontService,sans-serif" font-weight="400" font-size="24" transform="translate(670.674 272)">WARNING</text><rect x="974.5" y="226.5" width="159" height="76" stroke="#172C51" stroke-width="1.33333" stroke-miterlimit="8" fill="#FF0000" fill-opacity="0.458824"/><text font-family="Calibri,Calibri_MSFontService,sans-serif" font-weight="400" font-size="24" transform="translate(1025.22 272)">DRIFT</text><path d="M407.006 227.182 407.243 224.059 407.974 220.815 409.161 217.617 410.777 214.475 412.798 211.391 415.227 208.339 421.096 202.501 428.342 196.883 436.822 191.539 446.424 186.5 457.042 181.804 468.564 177.492 480.879 173.608 493.875 170.194 507.442 167.298 521.465 164.964 535.834 163.24 550.434 162.17 565.151 161.803 579.868 162.163 594.466 163.209 608.833 164.898 622.855 167.182 636.419 170.017 649.415 173.358 661.728 177.161 673.249 181.382 683.865 185.979 693.467 190.911 701.945 196.143 709.256 201.693 715.125 208.407 712.113 211.039 706.379 204.479 706.676 204.755 699.604 199.388 699.763 199.497 691.433 194.357 691.569 194.434 682.096 189.567 682.215 189.623 671.712 185.076 671.818 185.118 660.401 180.935 660.499 180.968 648.28 177.194 648.372 177.221 635.468 173.903 635.556 173.923 622.08 171.107 622.167 171.123 608.234 168.853 608.322 168.865 594.045 167.187 594.135 167.196 579.629 166.156 579.723 166.16 565.103 165.803 565.202 165.803 550.582 166.168 550.678 166.163 536.172 167.226 536.264 167.217 521.987 168.931 522.077 168.918 508.143 171.236 508.233 171.219 494.756 174.097 494.846 174.075 481.942 177.464 482.035 177.437 469.817 181.291 469.916 181.257 458.499 185.53 458.606 185.486 448.104 190.131 448.224 190.073 438.75 195.044 438.887 194.965 430.558 200.215 430.717 200.104 423.645 205.587 423.83 205.424 418.13 211.093 418.285 210.92 415.986 213.81 416.093 213.661 414.18 216.58 414.286 216.398 412.773 219.34 412.869 219.122 411.771 222.081 411.847 221.825 411.177 224.796 411.221 224.508 410.994 227.485ZM721.808 203.645 721.304 226 703.722 212.184Z"/><text font-family="Poppins,Poppins_MSFontService,sans-serif" font-weight="400" font-size="21" transform="translate(847.302 147)">Drift O</text><text font-family="Poppins,Poppins_MSFontService,sans-serif" font-weight="400" font-size="21" transform="translate(912.802 147)">N</text><path d="M719.006 227.176 719.26 223.96 720.04 220.62 721.305 217.329 723.027 214.097 725.181 210.927 727.744 207.818 730.698 204.77 734.047 201.767 741.739 196.011 750.774 190.515 761.009 185.332 772.326 180.501 784.608 176.065 797.738 172.068 811.594 168.555 826.059 165.575 841.011 163.174 856.33 161.399 871.896 160.299 887.588 159.921 903.278 160.291 918.843 161.369 934.16 163.107 949.111 165.459 963.574 168.379 977.429 171.819 990.557 175.734 1002.84 180.079 1014.15 184.811 1024.39 189.888 1033.42 195.272 1041.11 200.91 1044.55 203.933 1048.09 208.487 1044.93 210.94 1041.51 206.536 1041.77 206.812 1038.54 203.974 1038.68 204.084 1031.13 198.554 1031.29 198.659 1022.41 193.364 1022.54 193.437 1012.43 188.423 1012.55 188.477 1001.35 183.791 1001.45 183.832 989.27 179.522 989.365 179.553 976.33 175.665 976.42 175.69 962.653 172.271 962.739 172.291 948.362 169.389 948.447 169.404 933.581 167.065 933.667 167.077 918.435 165.348 918.523 165.356 903.047 164.284 903.138 164.289 887.541 163.921 887.636 163.921 872.039 164.296 872.132 164.292 856.657 165.386 856.746 165.377 841.515 167.142 841.602 167.13 826.736 169.518 826.823 169.502 812.446 172.464 812.533 172.444 798.766 175.933 798.857 175.908 785.822 179.876 785.919 179.844 773.738 184.244 773.844 184.202 762.639 188.985 762.758 188.93 752.651 194.048 752.787 193.973 743.9 199.378 744.059 199.271 736.514 204.916 736.651 204.804 733.421 207.701 733.521 207.605 730.672 210.544 730.779 210.424 728.326 213.399 728.437 213.251 726.396 216.256 726.507 216.073 724.893 219.102 724.994 218.88 723.823 221.927 723.903 221.664 723.189 224.723 723.235 224.425 722.994 227.49ZM1054.71 203.646 1054.18 226 1036.61 212.163Z"/><text font-family="Poppins,Poppins_MSFontService,sans-serif" font-weight="400" font-size="21" transform="translate(489.414 147)">Warning</text><text font-family="Poppins,Poppins_MSFontService,sans-serif" font-weight="400" font-size="21" transform="translate(585.414 147)">O</text><text font-family="Poppins,Poppins_MSFontService,sans-serif" font-weight="400" font-size="21" transform="translate(602.247 147)">N</text><path d="M723.299 301.145 723.062 304.396 722.336 307.765 721.156 311.089 719.546 314.361 717.53 317.575 715.106 320.759 709.24 326.857 701.995 332.728 693.516 338.314 683.911 343.581 673.291 348.491 661.767 352.999 649.448 357.06 636.448 360.628 622.878 363.656 608.851 366.096 594.479 367.899 579.875 369.017 565.153 369.401 550.431 369.025 535.829 367.929 521.459 366.163 507.433 363.772 493.865 360.805 480.866 357.309 468.549 353.33 457.026 348.913 446.408 344.103 436.804 338.941 428.324 333.468 421.02 327.668 414.648 320.133 417.702 317.55 423.946 324.934 423.663 324.659 430.735 330.274 430.576 330.16 438.906 335.537 438.768 335.456 448.241 340.547 448.12 340.487 458.623 345.245 458.513 345.199 469.931 349.576 469.83 349.54 482.049 353.487 481.953 353.459 494.858 356.93 494.766 356.908 508.242 359.854 508.151 359.837 522.085 362.212 521.993 362.198 536.27 363.953 536.176 363.944 550.681 365.032 550.583 365.027 565.203 365.401 565.1 365.401 579.72 365.02 579.62 365.025 594.125 363.914 594.029 363.924 608.306 362.133 608.212 362.147 622.146 359.723 622.054 359.742 635.53 356.735 635.436 356.758 648.341 353.216 648.244 353.245 660.462 349.217 660.36 349.254 671.778 344.787 671.667 344.835 682.17 339.979 682.048 340.041 691.521 334.846 691.383 334.929 699.713 329.442 699.554 329.558 706.626 323.827 706.443 323.995 712.143 318.07 711.993 318.245 714.292 315.224 714.189 315.373 716.102 312.323 716.002 312.502 717.515 309.427 717.425 309.641 718.523 306.548 718.453 306.795 719.123 303.69 719.083 303.966 719.309 300.855ZM407.801 324.662 409 302.333 426.143 316.69Z"/><path d="M1056.17 301.172 1055.91 304.135 1055.12 307.232 1053.84 310.271 1052.11 313.246 1049.94 316.156 1047.37 319.003 1044.41 321.791 1041.06 324.536 1033.37 329.792 1024.34 334.809 1014.11 339.54 1002.79 343.949 990.518 347.999 977.395 351.647 963.545 354.853 949.088 357.573 934.143 359.765 918.831 361.385 903.272 362.389 887.589 362.734 871.906 362.397 856.35 361.415 841.039 359.831 826.096 357.689 811.64 355.029 797.792 351.896 784.67 348.329 772.395 344.371 761.085 340.06 750.857 335.436 741.826 330.531 734.133 325.392 730.653 322.606 728.099 319.337 731.251 316.874 733.661 319.959 733.335 319.629 736.566 322.216 736.427 322.114 743.972 327.154 743.815 327.06 752.702 331.886 752.571 331.821 762.678 336.391 762.566 336.344 773.771 340.614 773.673 340.58 785.854 344.508 785.764 344.481 798.799 348.024 798.716 348.004 812.483 351.119 812.404 351.103 826.781 353.748 826.703 353.735 841.568 355.866 841.49 355.857 856.721 357.432 856.642 357.426 872.117 358.402 872.034 358.399 887.631 358.734 887.544 358.734 903.142 358.391 903.057 358.395 918.532 357.396 918.45 357.403 933.682 355.791 933.602 355.801 948.467 353.621 948.388 353.634 962.765 350.929 962.684 350.946 976.451 347.76 976.366 347.781 989.401 344.157 989.31 344.185 1001.49 340.167 1001.39 340.203 1012.6 335.836 1012.48 335.884 1022.59 331.21 1022.46 331.277 1031.34 326.34 1031.19 326.437 1038.73 321.282 1038.59 321.386 1041.82 318.74 1041.72 318.832 1044.57 316.147 1044.46 316.263 1046.91 313.546 1046.79 313.692 1048.83 310.948 1048.71 311.134 1050.32 308.367 1050.21 308.599 1051.38 305.816 1051.28 306.097 1052 303.304 1051.94 303.627 1052.18 300.828ZM721.876 324.677 721 302.333 739.401 315.038Z"/><text font-family="Poppins,Poppins_MSFontService,sans-serif" font-weight="400" font-size="21" transform="translate(842.923 340)">Drift OFF</text><text font-family="Poppins,Poppins_MSFontService,sans-serif" font-weight="400" font-size="21" transform="translate(497.562 347)">Warning OFF</text><path d="M723.303 301.046 723.076 310.839 722.4 320.656 721.292 330.432 719.766 340.149 717.836 349.786 715.513 359.345 709.774 378.036 702.646 396.13 694.25 413.456 684.699 429.864 674.107 445.202 662.598 459.304 656.509 465.872 650.244 472.064 643.801 477.874 637.194 483.284 630.438 488.274 623.545 492.825 616.529 496.916 609.404 500.529 602.184 503.642 594.882 506.236 587.513 508.29 580.091 509.783 572.632 510.693 565.152 511.002 557.673 510.695 550.215 509.791 542.794 508.307 535.426 506.267 528.124 503.69 520.904 500.597 513.78 497.007 506.764 492.942 499.871 488.421 493.115 483.463 486.508 478.088 480.065 472.315 473.799 466.162 467.71 459.635 456.201 445.624 445.608 430.383 436.057 414.079 427.66 396.863 420.531 378.884 414.791 360.311 412.468 350.812 410.538 341.235 409.01 331.569 407.881 320.516 411.86 320.109 412.984 331.107 412.97 330.998 414.483 340.569 414.468 340.486 416.381 349.982 416.363 349.901 418.663 359.302 418.631 359.187 424.33 377.628 424.278 377.482 431.35 395.318 431.289 395.178 439.619 412.257 439.547 412.123 449.02 428.294 448.937 428.164 459.44 443.275 459.343 443.147 470.761 457.048 470.678 456.953 476.694 463.402 476.633 463.339 482.835 469.428 482.768 469.366 489.142 475.077 489.07 475.015 495.601 480.329 495.522 480.268 502.196 485.165 502.109 485.105 508.912 489.567 508.818 489.509 515.735 493.517 515.632 493.462 522.649 496.997 522.536 496.944 529.639 499.987 529.517 499.94 536.692 502.472 536.56 502.431 543.791 504.433 543.649 504.399 550.924 505.853 550.773 505.829 558.076 506.715 557.917 506.702 565.234 507.002 565.07 507.002 572.387 506.7 572.227 506.713 579.53 505.821 579.378 505.846 586.652 504.383 586.51 504.417 593.741 502.402 593.609 502.443 600.783 499.895 600.66 499.943 607.763 496.88 607.651 496.933 614.668 493.375 614.565 493.431 621.482 489.397 621.387 489.456 628.19 484.965 628.103 485.025 634.777 480.096 634.698 480.158 641.229 474.81 641.157 474.872 647.531 469.124 647.464 469.187 653.667 463.058 653.606 463.121 659.622 456.631 659.539 456.726 670.957 442.735 670.861 442.864 681.364 427.655 681.281 427.785 690.755 411.509 690.683 411.643 699.013 394.454 698.952 394.593 706.024 376.642 705.973 376.788 711.672 358.227 711.641 358.342 713.94 348.881 713.922 348.961 715.836 339.404 715.821 339.487 717.334 329.854 717.322 329.939 718.421 320.249 718.413 320.337 719.082 310.609 719.078 310.7 719.305 300.954ZM399.979 322.794 409 302.333 419.956 321.826Z"/><text font-family="Poppins,Poppins_MSFontService,sans-serif" font-weight="400" font-size="21" transform="translate(516.307 454)">Set new</text><text font-family="Poppins,Poppins_MSFontService,sans-serif" font-weight="400" font-size="21" transform="translate(506.894 479)">reference</text><path d="M407.003 227.215 407.478 219.185 408.9 211.065 411.228 202.996 414.426 194.995 418.459 187.078 423.294 179.26 428.899 171.553 435.241 163.97 442.29 156.525 450.016 149.231 458.389 142.101 467.38 135.15 476.958 128.391 487.095 121.839 497.762 115.509 508.928 109.414 520.566 103.571 532.645 97.9942 545.137 92.6983 558.026 87.6933 584.795 78.6485 612.746 70.9708 627.111 67.6784 641.671 64.7774 656.408 62.2802 671.294 60.202 686.3 58.5586 701.396 57.3654 716.553 56.638 731.74 56.3921 746.927 56.6361 762.083 57.3577 777.179 58.5414 792.184 60.1718 807.07 62.2335 821.807 64.711 836.366 67.589 850.731 70.8553 878.681 78.4722 905.45 87.4455 918.338 92.4109 930.83 97.6649 942.909 103.198 954.546 108.995 965.713 115.041 976.38 121.321 986.517 127.821 996.095 134.527 1005.09 141.423 1013.46 148.497 1021.18 155.734 1028.23 163.12 1034.58 170.644 1040.18 178.291 1045.02 186.049 1049.05 193.905 1052.27 201.886 1053.69 207.736 1049.8 208.681 1048.42 202.972 1048.5 203.247 1045.38 195.485 1045.45 195.651 1041.5 187.95 1041.58 188.095 1036.83 180.471 1036.91 180.595 1031.39 173.063 1031.48 173.17 1025.22 165.746 1025.3 165.837 1018.33 158.536 1018.41 158.615 1010.76 151.451 1010.84 151.519 1002.54 144.509 1002.61 144.568 993.695 137.727 993.765 137.778 984.256 131.121 984.323 131.166 974.252 124.709 974.317 124.749 963.714 118.506 963.777 118.541 952.672 112.528 952.732 112.56 941.155 106.793 941.214 106.821 929.193 101.315 929.25 101.34 916.815 96.1098 916.872 96.1325 904.053 91.194 904.136 91.224 877.464 82.283 877.574 82.3164 849.721 74.7258 849.803 74.7463 835.507 71.4958 835.562 71.5076 821.059 68.6406 821.116 68.6509 806.435 66.1829 806.493 66.1917 791.664 64.138 791.723 64.1452 776.777 62.5212 776.836 62.5268 761.801 61.3478 761.863 61.3517 746.769 60.633 746.832 60.635 731.708 60.3921 731.773 60.3921 716.649 60.637 716.713 60.6349 701.619 61.3593 701.68 61.3554 686.646 62.5438 686.706 62.5381 671.759 64.175 671.818 64.1677 656.99 66.2377 657.048 66.2288 642.367 68.7164 642.424 68.706 627.921 71.5957 627.977 71.5837 613.681 74.8602 613.764 74.8393 585.91 82.4903 586.021 82.4565 559.349 91.4686 559.433 91.4382 546.614 96.416 546.67 96.393 534.236 101.665 534.294 101.639 522.273 107.189 522.332 107.161 510.754 112.974 510.814 112.942 499.709 119.002 499.772 118.967 489.169 125.259 489.234 125.219 479.163 131.728 479.231 131.683 469.721 138.393 469.792 138.341 460.873 145.236 460.946 145.177 452.648 152.243 452.725 152.174 445.077 159.395 445.156 159.316 438.188 166.675 438.27 166.583 432.01 174.067 432.094 173.96 426.573 181.552 426.657 181.427 421.905 189.112 421.986 188.968 418.031 196.73 418.106 196.564 414.979 204.388 415.044 204.2 412.773 212.07 412.822 211.861 411.438 219.762 411.464 219.535 410.997 227.451ZM1061.33 204.714 1054.48 226 1041.56 207.75Z"/><text font-family="Poppins,Poppins_MSFontService,sans-serif" font-weight="400" font-size="21" transform="translate(686.42 41)">Drift O</text><text font-family="Poppins,Poppins_MSFontService,sans-serif" font-weight="400" font-size="21" transform="translate(751.92 41)">N</text><path d="M1056.48 301.07 1056.01 314.521 1054.61 328.012 1052.32 341.444 1049.16 354.79 1045.18 368.025 1040.38 381.123 1034.82 394.057 1028.51 406.801 1021.5 419.331 1013.8 431.619 1005.45 443.641 996.474 455.37 986.907 466.781 976.778 477.849 966.116 488.546 954.95 498.848 943.309 508.728 931.224 518.161 918.722 527.121 905.835 535.581 892.591 543.516 879.019 550.899 865.149 557.704 851.01 563.905 836.631 569.476 822.042 574.39 807.272 578.621 792.351 582.143 777.307 584.928 762.171 586.951 746.972 588.184 731.74 588.601 716.509 588.186 701.31 586.958 686.175 584.945 671.131 582.173 656.21 578.668 641.441 574.457 626.852 569.566 612.474 564.021 598.335 557.849 584.465 551.076 570.893 543.727 557.649 535.83 544.762 527.409 532.26 518.491 520.175 509.102 508.534 499.268 497.368 489.014 486.705 478.366 476.576 467.35 467.01 455.992 458.036 444.317 449.684 432.351 441.985 420.12 434.967 407.649 428.662 394.963 423.098 382.089 418.306 369.051 414.317 355.877 411.161 342.592 408.867 329.211 408.052 320.489 412.035 320.117 412.843 328.763 412.823 328.611 415.093 341.853 415.068 341.729 418.195 354.893 418.163 354.776 422.118 367.837 422.081 367.726 426.833 380.656 426.792 380.553 432.312 393.327 432.267 393.23 438.526 405.822 438.478 405.732 445.447 418.115 445.396 418.031 453.044 430.18 452.992 430.101 461.29 441.99 461.235 441.916 470.154 453.519 470.098 453.45 479.607 464.74 479.55 464.675 489.621 475.627 489.562 475.566 500.164 486.154 500.104 486.096 511.209 496.294 511.147 496.239 522.725 506.02 522.661 505.968 534.682 515.307 534.617 515.258 547.051 524.129 546.984 524.083 559.802 532.458 559.733 532.415 572.906 540.27 572.834 540.229 586.333 547.538 586.258 547.5 600.052 554.236 599.974 554.2 614.034 560.338 613.954 560.305 628.25 565.818 628.166 565.788 642.669 570.65 642.582 570.623 657.262 574.809 657.171 574.785 671.999 578.268 671.904 578.248 686.85 581.003 686.751 580.987 701.786 582.987 701.684 582.976 716.778 584.194 716.671 584.189 731.795 584.601 731.685 584.601 746.809 584.187 746.702 584.193 761.796 582.968 761.693 582.979 776.728 580.97 776.628 580.986 791.575 578.219 791.479 578.239 806.307 574.739 806.216 574.763 820.896 570.558 820.809 570.585 835.312 565.7 835.228 565.73 849.524 560.191 849.443 560.225 863.503 554.058 863.425 554.094 877.219 547.326 877.144 547.365 890.643 540.022 890.571 540.063 903.744 532.171 903.674 532.215 916.493 523.8 916.426 523.846 928.86 514.934 928.795 514.983 940.816 505.6 940.752 505.652 952.33 495.825 952.268 495.88 963.373 485.635 963.313 485.693 973.915 475.055 973.857 475.117 983.927 464.113 983.87 464.178 993.38 452.835 993.324 452.904 1002.24 441.247 1002.19 441.321 1010.49 429.376 1010.43 429.455 1018.08 417.249 1018.03 417.333 1025 404.891 1024.95 404.982 1031.21 392.331 1031.17 392.427 1036.69 379.593 1036.65 379.697 1041.4 366.706 1041.36 366.816 1045.32 353.694 1045.29 353.811 1048.41 340.585 1048.39 340.708 1050.66 327.404 1050.64 327.534 1052.02 314.177 1052.01 314.313 1052.48 300.93ZM400.176 322.879 409 302.333 420.143 321.72Z"/><text font-family="Poppins,Poppins_MSFontService,sans-serif" font-weight="400" font-size="21" transform="translate(685.674 542)">Set</text><text font-family="Poppins,Poppins_MSFontService,sans-serif" font-weight="400" font-size="21" transform="translate(724.84 542)">new</text><text font-family="Poppins,Poppins_MSFontService,sans-serif" font-weight="400" font-size="21" transform="translate(676.26 567)">reference</text><path d="M1056.48 301.053 1056.01 318.749 1054.62 336.461 1052.34 354.1 1049.19 371.632 1045.22 389.022 1040.44 406.237 1034.89 423.241 1028.6 440.001 1021.6 456.482 1013.92 472.65 1005.58 488.471 996.622 503.911 987.069 518.935 976.952 533.508 966.3 547.598 955.143 561.169 943.51 574.187 931.43 586.617 918.932 598.426 906.047 609.578 892.802 620.04 879.227 629.776 865.351 638.752 851.203 646.932 836.812 654.283 822.207 660.769 807.418 666.354 792.474 671.004 777.404 674.683 762.238 677.354 747.006 678.984 731.74 679.535 716.475 678.986 701.244 677.362 686.078 674.7 671.009 671.035 656.065 666.401 641.276 660.836 626.671 654.373 612.281 647.048 598.133 638.897 584.256 629.953 570.681 620.251 557.436 609.826 544.551 598.714 532.053 586.946 519.973 574.56 508.34 561.588 497.183 548.065 486.531 534.025 476.413 519.503 466.86 504.532 457.901 489.147 449.564 473.382 441.88 457.27 434.879 440.847 428.589 424.146 423.041 407.201 418.264 390.047 414.289 372.718 411.145 355.247 408.861 337.665 407.597 320.47 411.587 320.177 412.846 337.316 412.835 337.205 415.105 354.684 415.09 354.587 418.217 371.963 418.198 371.87 422.153 389.108 422.13 389.019 426.883 406.085 426.857 405.999 432.377 422.86 432.348 422.777 438.607 439.397 438.575 439.318 445.544 455.663 445.509 455.586 453.157 471.622 453.12 471.548 461.418 487.241 461.378 487.169 470.297 502.484 470.254 502.414 479.764 517.317 479.719 517.25 489.79 531.705 489.742 531.64 500.345 545.615 500.294 545.551 511.399 559.01 511.345 558.948 522.923 571.858 522.866 571.797 534.887 584.123 534.826 584.063 547.261 595.771 547.196 595.713 560.015 606.768 559.946 606.711 573.119 617.079 573.045 617.024 586.543 626.67 586.464 626.616 600.258 635.508 600.173 635.456 614.233 643.557 614.141 643.507 628.437 650.784 628.34 650.737 642.843 657.155 642.738 657.112 657.418 662.637 657.306 662.598 672.134 667.196 672.014 667.163 686.961 670.798 686.834 670.772 701.869 673.411 701.735 673.392 716.829 675.001 716.689 674.991 731.812 675.535 731.668 675.535 746.792 674.989 746.651 674.999 761.745 673.384 761.611 673.403 776.646 670.755 776.518 670.781 791.465 667.133 791.345 667.166 806.173 662.553 806.06 662.591 820.741 657.047 820.635 657.09 835.138 650.65 835.04 650.696 849.337 643.394 849.245 643.444 863.305 635.314 863.22 635.366 877.014 626.443 876.934 626.497 890.433 616.816 890.359 616.872 903.532 606.467 903.463 606.524 916.282 595.43 916.217 595.488 928.652 583.739 928.591 583.799 940.612 571.429 940.555 571.49 952.133 558.534 952.079 558.597 963.184 545.089 963.134 545.153 973.736 531.128 973.689 531.194 983.76 516.687 983.715 516.754 993.224 501.799 993.182 501.868 1002.1 486.499 1002.06 486.57 1010.36 470.822 1010.32 470.896 1017.97 454.803 1017.94 454.88 1024.9 438.476 1024.87 438.556 1031.13 421.877 1031.1 421.959 1036.62 405.039 1036.6 405.124 1041.35 387.997 1041.33 388.086 1045.28 370.787 1045.26 370.879 1048.39 353.442 1048.38 353.538 1050.65 335.997 1050.64 336.097 1052.02 318.488 1052.01 318.591 1052.48 300.947ZM399.663 322.651 409 302.333 419.652 321.994Z"/><text font-family="Poppins,Poppins_MSFontService,sans-serif" font-weight="400" font-size="21" transform="translate(683.844 656)">Drift OFF</text></g></svg>