<svg overflow="hidden" xmlns:xlink="http://www.w3.org/1999/xlink" xmlns="http://www.w3.org/2000/svg" viewBox="0 0 1182.0922384701912 527.04" style="max-height: 500px" width="1182.0922384701912" height="527.04"><defs><clipPath id="clip0"><rect height="47" width="45" y="236" x="631"/></clipPath><clipPath id="clip1"><rect height="47" width="45" y="236" x="631"/></clipPath><clipPath id="clip2"><rect height="47" width="45" y="236" x="631"/></clipPath></defs><g><rect fill="#27313F" height="720" width="1280" y="0" x="0"/><g clip-path="url(#clip0)"><g clip-path="url(#clip1)"><g clip-path="url(#clip2)"><path transform="matrix(1.02405 0 0 1 631.027 236)" fill="#FFFFFF" stroke-width="0.382469" stroke="#27313F" d="M24.8387 3.41178C25.6152 4.75814 26.1468 8.09725 26.426 12.5188L31.3869 12.5188 31.3869 7.82568C31.2798 7.77596 31.1765 7.71859 31.0771 7.65356 30.8896 7.53499 30.7175 7.3973 30.5684 7.24813L30.5492 7.229C30.2853 6.96509 30.0749 6.64762 29.9296 6.29574 29.7843 5.94767 29.7039 5.56519 29.7039 5.16357 29.7039 4.76579 29.7843 4.38713 29.9296 4.03524 30.0788 3.67188 30.3006 3.34676 30.5684 3.0752 30.8399 2.80363 31.165 2.58561 31.5284 2.43644 31.8765 2.2911 32.2589 2.21077 32.6567 2.21077 33.0545 2.21077 33.4332 2.2911 33.7851 2.43644 34.1484 2.58561 34.4735 2.80745 34.7451 3.0752 35.0167 3.34676 35.2347 3.67188 35.3839 4.03141L35.3915 4.05436C35.5292 4.3986 35.6057 4.77344 35.6057 5.15975 35.6057 5.55754 35.5254 5.9362 35.38 6.28809 35.2309 6.65145 35.009 6.97656 34.7413 7.24813L34.7183 7.27108C34.5845 7.40112 34.4353 7.52352 34.2785 7.62679 34.1943 7.68416 34.1064 7.73389 34.0146 7.78361L34.0146 13.8422C34.0146 14.2056 33.8654 14.5345 33.6283 14.7716 33.3911 15.0088 33.0622 15.158 32.6988 15.158L26.5561 15.158C26.602 16.4163 26.6326 17.7397 26.644 19.1052L38.2869 19.1052C38.3367 19.0058 38.3902 18.9102 38.4476 18.8184L38.4629 18.7992C38.5738 18.6271 38.7039 18.4703 38.8416 18.3326 39.1131 18.061 39.4382 17.843 39.8016 17.6938L39.8245 17.6862C40.1688 17.5485 40.5436 17.4682 40.9299 17.4682 41.3277 17.4682 41.7064 17.5485 42.0583 17.6938 42.4216 17.843 42.7467 18.0649 43.0183 18.3326 43.2899 18.6042 43.5079 18.9293 43.6571 19.2926 43.8024 19.6445 43.8827 20.0232 43.8827 20.421 43.8827 20.8188 43.8024 21.1974 43.6571 21.5493 43.5079 21.9127 43.286 22.2378 43.0183 22.5094 42.7467 22.7809 42.4216 22.9989 42.0583 23.1481L42.0353 23.1558C41.6911 23.2935 41.3162 23.37 40.9299 23.37 40.5321 23.37 40.1497 23.2896 39.8016 23.1443 39.4421 22.9951 39.1169 22.7771 38.8416 22.5055 38.6962 22.3602 38.5662 22.1995 38.4514 22.0198 38.3902 21.928 38.3367 21.8324 38.2869 21.7329L26.6479 21.7329C26.6364 23.2246 26.6058 24.7507 26.5561 26.3036L40.7884 26.3036C41.1518 26.3036 41.4807 26.4528 41.7179 26.6899 41.955 26.9271 42.1042 27.256 42.1042 27.6194L42.1042 37.3843C42.2304 37.4378 42.349 37.499 42.4637 37.5679 42.6702 37.6903 42.8577 37.8394 43.026 38.0077 43.2975 38.2793 43.5155 38.6044 43.6647 38.9678L43.6724 38.9907C43.8101 39.335 43.8904 39.7098 43.8904 40.0961 43.8904 40.4939 43.8101 40.8726 43.6647 41.2244 43.5155 41.5878 43.2937 41.9129 43.026 42.1845 42.7544 42.4561 42.4293 42.6741 42.0659 42.8232 41.7179 42.9686 41.3354 43.0489 40.9376 43.0489 40.5398 43.0489 40.1611 42.9686 39.8092 42.8232 39.4459 42.6741 39.1208 42.4522 38.8492 42.1845 38.5776 41.9129 38.3596 41.5878 38.2104 41.2244 38.0651 40.8764 37.9848 40.4939 37.9848 40.0961 37.9848 39.6983 38.0651 39.3158 38.2104 38.9678 38.3596 38.6044 38.5815 38.2793 38.8492 38.0077 38.9716 37.8853 39.1093 37.7706 39.2546 37.6673 39.3235 37.6176 39.3962 37.5717 39.4727 37.5296L39.4727 28.939 26.4528 28.939C26.3954 30.1782 26.3266 31.4213 26.2424 32.6606L30.4651 32.6606C30.8284 32.6606 31.1574 32.8097 31.3945 33.0469 31.6317 33.284 31.7808 33.613 31.7808 33.9763L31.7808 39.2011C31.8765 39.2508 31.9644 39.3044 32.0562 39.3617 32.2322 39.4765 32.389 39.6065 32.5305 39.748L32.5535 39.771C32.8136 40.0387 33.0277 40.3562 33.1731 40.7081 33.3184 41.0561 33.3988 41.4386 33.3988 41.8364 33.3988 42.2342 33.3184 42.6167 33.1731 42.9648L33.1616 42.9877C33.0125 43.3434 32.7944 43.6609 32.5305 43.9248L32.5114 43.9439C32.2437 44.2078 31.9262 44.422 31.5781 44.5674 31.2301 44.7127 30.8437 44.793 30.446 44.793 30.0482 44.793 29.6695 44.7127 29.3176 44.5674 28.9543 44.4182 28.6291 44.1964 28.3576 43.9286L28.3346 43.9057C28.0745 43.6379 27.8603 43.3205 27.715 42.9686 27.5697 42.6167 27.4893 42.238 27.4893 41.8402 27.4893 41.4425 27.5697 41.0638 27.715 40.7119 27.8642 40.3485 28.0822 40.0234 28.3538 39.7519L28.3538 39.7519C28.5029 39.6027 28.6712 39.4688 28.8472 39.3541 28.9428 39.2929 29.0422 39.2355 29.1455 39.1858L29.1455 35.2959 26.0474 35.2959C26.0053 35.8199 25.9594 36.3439 25.9135 36.8641 25.8523 37.5373 25.6572 38.7804 25.7834 39.3962 26.12 41.0294 24.6475 45.9558 20.3177 46.8623 18.1834 47.306 15.9765 46.6519 14.3127 45.3515 12.9816 44.3149 11.9833 42.8577 11.6238 41.2091 10.9277 41.1824 10.2201 41.0409 9.53158 40.8114 8.00928 40.2988 6.54435 39.3005 5.40072 37.9771 4.24943 36.6499 3.41561 34.9823 3.15169 33.1272 3.01782 32.1595 3.03695 31.1497 3.25114 30.1094 2.50529 29.4324 1.86271 28.6712 1.354 27.8412 0.466634 26.4222-0.0191243 24.8234 0 23.1787 0.0191243 21.5225 0.546956 19.8434 1.69059 18.2829 2.35612 17.3764 3.23201 16.512 4.34123 15.7202 4.32975 15.418 4.32975 15.1159 4.3374 14.8175 4.42537 12.4002 5.31657 10.2736 6.61702 8.68628 7.96338 7.04158 9.76489 5.9668 11.6161 5.70288L11.6238 5.70288C11.6888 5.43131 11.7653 5.16357 11.8647 4.90348 12.4614 3.28556 13.6892 1.90861 15.1924 1.03271 16.707 0.152995 18.5238-0.237142 20.2948 0.130046 21.9968 0.489583 23.6186 1.507 24.8387 3.41178L24.8387 3.41178 24.8387 3.41178ZM11.7691 37.9465C12.3964 35.9729 14.0526 34.0031 17.1775 32.4081 17.9578 32.0142 18.9063 32.3201 19.3079 33.0966 19.7019 33.8769 19.3959 34.8254 18.6195 35.2271 15.724 36.7073 14.634 38.4055 14.634 39.8857 14.634 41.0409 15.2918 42.1195 16.248 42.8691 17.2196 43.6226 18.4741 44.0166 19.6598 43.7718 21.1362 43.4658 22.5591 42.1003 23.2973 39.1246L23.2973 7.83716C22.5591 4.88436 21.1362 3.52653 19.6637 3.22054 18.6921 3.01782 17.6594 3.24731 16.7797 3.76367 15.8885 4.28003 15.1733 5.0756 14.8328 5.99357 14.3815 7.21753 14.6493 8.7207 16.1792 10.1359 16.8141 10.7288 16.8562 11.7194 16.2633 12.3543 15.6705 12.9893 14.6799 13.0313 14.0449 12.4385 12.8554 11.3369 12.121 10.1665 11.7538 8.99992 10.8167 9.22559 9.89111 9.84521 9.14144 10.7555 8.26554 11.8227 7.66504 13.2685 7.60384 14.9285 7.58854 15.3683 7.61149 15.835 7.67651 16.3131L7.67269 16.3131C7.75684 16.9327 7.48144 17.5753 6.91536 17.9233 5.7679 18.6271 4.92261 19.4036 4.32975 20.2106 3.61068 21.1898 3.28174 22.2187 3.27026 23.2093 3.25879 24.2153 3.5686 25.2174 4.12321 26.1162 4.59367 26.8774 5.23625 27.5735 6.02034 28.1549 6.60938 28.5603 6.88477 29.3176 6.6438 30.0252 6.33398 30.9432 6.26514 31.8344 6.38371 32.6644 6.552 33.8577 7.10661 34.9478 7.86393 35.8237 8.62508 36.7034 9.58895 37.3613 10.5758 37.6979 10.9736 37.8509 11.3752 37.9274 11.7691 37.9465L11.7691 37.9465 11.7691 37.9465ZM12.1287 15.7202C12.7483 15.1121 13.7428 15.1197 14.3547 15.7393 14.9629 16.359 14.9552 17.3534 14.3356 17.9654 12.9854 19.2965 12.2817 21.01 12.2052 22.7618 12.1325 24.5671 12.7177 26.426 13.9493 27.9521 14.4963 28.6291 14.3853 29.6198 13.7083 30.1667 13.0313 30.7137 12.0407 30.6028 11.4937 29.9258 9.76872 27.7877 8.9502 25.1868 9.05347 22.6356 9.16439 20.1035 10.1818 17.6326 12.1287 15.7202L12.1287 15.7202 12.1287 15.7202Z"/></g></g></g><path fill="#FFFFFF" d="M486 259 589.776 259 589.776 261 486 261ZM588.442 256 596.442 260 588.442 264Z"/><g><g><g><path transform="matrix(1.02128 0 0 1 404 236)" fill="#FFFFFF" d="M35.25 35.0542 28.5476 24.3715C28.4277 24.1757 28.2141 24.0569 27.9846 24.0581 27.754 24.058 27.5396 24.1764 27.4167 24.3715L25.4583 27.5146 29.659 34.31C30.0144 34.8476 30.0909 35.5229 29.8646 36.1264L34.6135 36.1264C35.0024 36.1458 35.3334 35.8463 35.3528 35.4574 35.3599 35.3157 35.3241 35.1752 35.25 35.0542Z"/><path transform="matrix(1.02128 0 0 1 404 236)" fill="#FFFFFF" d="M27.9552 35.1178 17.3068 17.7915C17.1701 17.615 16.9571 17.5148 16.734 17.5222L16.6458 17.5222 16.5577 17.5222C16.3346 17.5148 16.1215 17.615 15.9849 17.7915L5.33646 35.1178C5.18562 35.3289 5.16486 35.6064 5.2826 35.8375 5.40138 36.0469 5.63682 36.1618 5.875 36.1264L27.4167 36.1264C27.6549 36.1618 27.8903 36.0469 28.0091 35.8375 28.1268 35.6064 28.1061 35.3289 27.9552 35.1178ZM18.4279 25.9088 16.734 27.4167 15.04 25.9088 12.2396 27.6027 16.6458 20.4597 20.9346 27.4167Z"/><path transform="matrix(1.02128 0 0 1 404 236)" fill="#FFFFFF" d="M11.75 18.6042C11.75 19.4153 11.0924 20.0729 10.2812 20.0729 9.47008 20.0729 8.8125 19.4153 8.8125 18.6042 8.8125 17.793 9.47008 17.1354 10.2812 17.1354 11.0924 17.1354 11.75 17.793 11.75 18.6042Z"/><path transform="matrix(1.02128 0 0 1 404 236)" fill="#FFFFFF" d="M45.5312 6.36458 6.36458 6.36458 6.36458 11.75 0.979167 11.75 0.979167 42.0014 40.1458 42.0014 40.1458 36.6159 45.5312 36.6159ZM37.2083 39.1667 3.91667 39.1667 3.91667 14.5847 37.2083 14.5847ZM42.5938 33.7812 40.1458 33.7812 40.1458 11.75 9.30208 11.75 9.30208 9.30208 42.5938 9.30208Z"/></g></g></g><g><g><g><path fill="#FFFFFF" d="M875.85 239.275 873.725 237.15 867 243.875 860.275 237.15 858.15 239.275 864.875 246 858.15 252.725 860.275 254.85 867 248.125 873.725 254.85 875.85 252.725 869.125 246Z"/></g></g></g><g><g><g><path fill="#FFFFFF" d="M876.525 264.95 863.725 277.05 857.575 270.75 855.45 272.775 863.625 281.175 865.775 279.175 878.55 267.05Z"/></g></g></g><path fill="#FFFFFF" d="M710 259 813.776 259 813.776 261 710 261ZM812.442 256 820.442 260 812.442 264Z"/><g><g><g><path fill="#FFFFFF" d="M433.85 405.275 431.725 403.15 425 409.875 418.275 403.15 416.15 405.275 422.875 412 416.15 418.725 418.275 420.85 425 414.125 431.725 420.85 433.85 418.725 427.125 412Z"/></g></g></g><g><g><g><path fill="#FFFFFF" d="M434.525 430.95 421.725 443.05 415.575 436.75 413.45 438.775 421.625 447.175 423.775 445.175 436.55 433.05Z"/></g></g></g><text transform="translate(403.942 311)" font-size="19" font-weight="400" font-family="Poppins,Poppins_MSFontService,sans-serif" fill="#FFFFFF">Input</text><text transform="translate(821.746 310)" font-size="19" font-weight="400" font-family="Poppins,Poppins_MSFontService,sans-serif" fill="#FFFFFF">Prediction</text><text transform="translate(372.937 476)" font-size="19" font-weight="400" font-family="Poppins,Poppins_MSFontService,sans-serif" fill="#FFFFFF">True value</text><path fill-rule="evenodd" fill="#27313F" stroke-dasharray="10.6667 8" stroke-miterlimit="8" stroke-width="2.66667" stroke="#8EC047" d="M572.5 108.334C572.5 102.35 577.35 97.5001 583.334 97.5001L724.667 97.5001C730.65 97.5001 735.5 102.35 735.5 108.334L735.5 151.667C735.5 157.65 730.65 162.5 724.667 162.5L583.334 162.5C577.35 162.5 572.5 157.65 572.5 151.667Z"/><text transform="translate(629.363 135)" font-size="19" font-weight="400" font-family="Poppins,Poppins_MSFontService,sans-serif" fill="#8EC047">I</text><text transform="translate(634.03 135)" font-size="19" font-weight="400" font-family="Poppins,Poppins_MSFontService,sans-serif" fill="#8EC047">nput</text><path transform="matrix(-1 0 0 1 597.342 162.5)" fill="#8EC047" d="M1.2346-0.50352 5.26277 9.37331 2.79356 10.3803-1.2346 0.50352ZM8.28389 16.7809 12.312 26.6577 9.84284 27.6648 5.81468 17.788ZM15.3332 34.0654 19.3613 43.9422 16.8921 44.9492 12.864 35.0724ZM22.3825 51.3498 26.4106 61.2266 23.9414 62.2337 19.9132 52.3569ZM29.4317 68.6342 33.4599 78.5111 30.9907 79.5181 26.9625 69.6413ZM36.481 85.9187 40.5092 95.7955 38.04 96.8026 34.0118 86.9257ZM43.5453 96.1785C44.3795 98.224 43.3976 100.559 41.352 101.393 39.3065 102.227 36.9719 101.245 36.1377 99.1996 35.3034 97.154 36.2854 94.8195 38.3309 93.9852 40.3765 93.151 42.711 94.1329 43.5453 96.1785Z"/><path fill-rule="evenodd" fill="#27313F" stroke-dasharray="10.6667 8" stroke-miterlimit="8" stroke-width="2.66667" stroke="#8EC047" d="M114.5 330.334C114.5 324.35 119.35 319.5 125.334 319.5L267.666 319.5C273.65 319.5 278.5 324.35 278.5 330.334L278.5 373.666C278.5 379.65 273.65 384.5 267.666 384.5L125.334 384.5C119.35 384.5 114.5 379.65 114.5 373.666Z"/><text transform="translate(155.917 357)" font-size="19" font-weight="400" font-family="Poppins,Poppins_MSFontService,sans-serif" fill="#8EC047">Concept</text><path transform="matrix(1 0 0 -1 277.5 352.014)" fill="#8EC047" d="M0.0100772-1.3333 10.6764-1.25268 10.6563 1.41391-0.0100772 1.3333ZM18.6762-1.19222 29.3426-1.1116 29.3224 1.55499 18.6561 1.47438ZM37.3423-1.05113 48.0087-0.970518 47.9886 1.69607 37.3222 1.61546ZM56.0085-0.910054 66.6748-0.829437 66.6547 1.83715 55.9883 1.75654ZM68.1008-6.15215C71.7826-6.12432 74.7447-3.11708 74.7169 0.564716 74.689 4.24651 71.6818 7.20863 68 7.18081 64.3182 7.15298 61.3561 4.14574 61.3839 0.463945 61.4117-3.21785 64.419-6.17997 68.1008-6.15215Z"/><path transform="matrix(1 0 0 -1 346.5 351.585)" fill="#8EC047" d="M1.17602-0.628295 6.20238 8.77987 3.85034 10.0365-1.17602 0.628295ZM9.97215 15.836 14.9985 25.2441 12.6465 26.5007 7.62011 17.0926ZM18.7683 32.3003 23.7946 41.7084 21.4426 42.965 16.4162 33.5569ZM27.5644 48.7645 32.5908 58.1727 30.2387 59.4293 25.2124 50.0211ZM36.3605 65.2288 41.3869 74.637 39.0349 75.8936 34.0085 66.4854ZM45.1567 81.6931 45.5645 82.4564 43.2124 83.713 42.8046 82.9497ZM47.9165 81.1998C48.9575 83.1483 48.2218 85.5718 46.2733 86.6128 44.3248 87.6538 41.9014 86.9181 40.8604 84.9696 39.8194 83.0211 40.5551 80.5977 42.5036 79.5567 44.4521 78.5157 46.8755 79.2513 47.9165 81.1998Z"/><path fill="#8EC047" d="M346.531 351.655 353.296 359.902 351.234 361.593 344.469 353.346ZM358.369 366.087 365.133 374.335 363.072 376.026 356.307 367.779ZM370.207 380.52 376.971 388.768 374.91 390.459 368.145 382.211ZM382.045 394.953 388.809 403.201 386.747 404.892 379.983 396.644ZM393.883 409.386 400.647 417.633 398.585 419.325 391.821 411.077ZM406.61 420.699C408.011 422.407 407.762 424.927 406.054 426.328 404.346 427.729 401.826 427.48 400.425 425.772 399.024 424.064 399.273 421.544 400.981 420.143 402.689 418.742 405.209 418.991 406.61 420.699Z"/><path fill-rule="evenodd" fill="#27313F" stroke-dasharray="10.6667 8" stroke-miterlimit="8" stroke-width="2.66667" stroke="#8EC047" d="M850.5 397.334C850.5 391.35 855.35 386.5 861.334 386.5L1003.67 386.5C1009.65 386.5 1014.5 391.35 1014.5 397.334L1014.5 440.666C1014.5 446.65 1009.65 451.5 1003.67 451.5L861.334 451.5C855.35 451.5 850.5 446.65 850.5 440.666Z"/><text transform="translate(910.921 424)" font-size="19" font-weight="400" font-family="Poppins,Poppins_MSFontService,sans-serif" fill="#8EC047">Error</text><path transform="matrix(-1 0 0 1 851.221 420.5)" fill="#8EC047" d="M2.06703e-06-1.33333 10.6667-1.33332 10.6667 1.33335-2.06703e-06 1.33333ZM18.6667-1.3333 29.3333-1.33329 29.3333 1.33338 18.6667 1.33336ZM37.3333-1.33328 48-1.33326 48 1.33341 37.3333 1.33339ZM56-1.33325 66.6667-1.33323 66.6667 1.33344 56 1.33342ZM67.7215-6.66656C71.4034-6.66656 74.3881-3.68178 74.3881 0.000115322 74.3881 3.68201 71.4034 6.66678 67.7215 6.66677 64.0396 6.66677 61.0548 3.68199 61.0548 9.46517e-05 61.0548-3.6818 64.0396-6.66657 67.7215-6.66656Z"/><path transform="matrix(1 0 0 -1 783.5 421.306)" fill="#8EC047" d="M1.33333-8.7595e-07 1.33334 10.6667-1.33333 10.6667-1.33333 8.7595e-07ZM1.33335 18.6667 1.33335 29.3333-1.33331 29.3333-1.33332 18.6667ZM1.33336 37.3333 1.33336 48-1.3333 48-1.33331 37.3333ZM1.33337 56 1.33338 66.6667-1.33329 66.6667-1.3333 56ZM1.33338 74.6667 1.33339 85.3333-1.33328 85.3333-1.33328 74.6667ZM1.33339 93.3333 1.3334 104-1.33327 104-1.33327 93.3333ZM1.33341 112 1.33341 122.667-1.33325 122.667-1.33326 112ZM1.33342 130.667 1.33343 141.333-1.33324 141.333-1.33325 130.667ZM1.33343 149.333 1.33344 159.806-1.33323 159.806-1.33324 149.333ZM4.0001 159.806C4.00011 162.016 2.20925 163.806 0.000107615 163.806-2.20903 163.806-3.99989 162.016-3.99989 159.806-3.9999 157.597-2.20904 155.806 0.000102359 155.806 2.20924 155.806 4.0001 157.597 4.0001 159.806Z"/><path transform="matrix(-1 0 0 1 783.419 421.5)" fill="#8EC047" d="M0.0128695-1.33327 10.679-1.23031 10.6533 1.43623-0.0128695 1.33327ZM18.6787-1.1531 29.3448-1.05014 29.3191 1.6164 18.6529 1.51344ZM37.3445-0.972925 48.0106-0.869969 47.9849 1.79657 37.3187 1.69362ZM56.0103-0.792752 66.6764-0.689796 66.6507 1.97675 55.9845 1.87379ZM74.676-0.612578 85.3422-0.509622 85.3165 2.15692 74.6503 2.05396ZM93.3418-0.432405 104.008-0.329449 103.982 2.33709 93.3161 2.23414ZM112.008-0.252232 122.674-0.149276 122.648 2.51727 111.982 2.41431ZM130.673-0.0720587 141.34 0.0308974 141.314 2.69744 130.648 2.59448ZM149.339 0.108114 160.005 0.211071 159.98 2.87761 149.313 2.77466ZM168.005 0.288288 178.671 0.391244 178.645 3.05779 167.979 2.95483ZM186.671 0.468461 197.337 0.571417 197.311 3.23796 186.645 3.135ZM205.337 0.648634 216.003 0.75159 215.977 3.41813 205.311 3.31518ZM224.002 0.828807 234.669 0.931763 234.643 3.59831 223.977 3.49535ZM242.668 1.00898 253.334 1.11194 253.309 3.77848 242.643 3.67552ZM261.334 1.18915 272 1.29211 271.974 3.95865 261.308 3.8557ZM280 1.36933 290.666 1.47228 290.64 4.13883 279.974 4.03587ZM298.666 1.5495 309.332 1.65246 309.306 4.319 298.64 4.21604ZM317.331 1.72967 327.998 1.83263 327.972 4.49917 317.306 4.39622ZM330.958-0.805588C333.167-0.784265 334.94 1.0238 334.919 3.23283 334.898 5.44187 333.09 7.21536 330.881 7.19404 328.672 7.17272 326.898 5.36465 326.919 3.15562 326.941 0.946581 328.749-0.826911 330.958-0.805588Z"/><path fill="#8EC047" d="M654.833 60.5 654.833 71.1667 652.167 71.1667 652.167 60.5001ZM654.833 79.1667 654.833 89.8334 652.167 89.8334 652.167 79.1667ZM657.5 97.7365C657.5 99.9456 655.709 101.736 653.5 101.736 651.291 101.736 649.5 99.9456 649.5 97.7365 649.5 95.5274 651.291 93.7365 653.5 93.7365 655.709 93.7365 657.5 95.5273 657.5 97.7365Z"/><text transform="translate(619.947 50)" font-size="19" font-weight="400" font-family="Poppins,Poppins_MSFontService,sans-serif" fill="#8EC047">Metrics</text><path fill="#8EC047" d="M197.833 281.5 197.833 292.167 195.167 292.167 195.167 281.5ZM197.833 300.167 197.833 310.833 195.167 310.833 195.167 300.167ZM200.5 318.736C200.5 320.946 198.709 322.736 196.5 322.736 194.291 322.737 192.5 320.946 192.5 318.737 192.5 316.527 194.291 314.737 196.5 314.736 198.709 314.736 200.5 316.527 200.5 318.736Z"/><text transform="translate(162.799 272)" font-size="19" font-weight="400" font-family="Poppins,Poppins_MSFontService,sans-serif" fill="#8EC047">Metrics</text><path fill-rule="evenodd" fill="#27313F" stroke-dasharray="10.6667 8" stroke-miterlimit="8" stroke-width="2.66667" stroke="#8EC047" d="M912.5 105.167C912.5 99.2757 917.276 94.5001 923.167 94.5001L1065.83 94.5001C1071.72 94.5001 1076.5 99.2757 1076.5 105.167L1076.5 147.833C1076.5 153.724 1071.72 158.5 1065.83 158.5L923.167 158.5C917.276 158.5 912.5 153.724 912.5 147.833Z"/><text transform="translate(947.127 132)" font-size="19" font-weight="400" font-family="Poppins,Poppins_MSFontService,sans-serif" fill="#8EC047">Prediction</text><path transform="matrix(-1 0 0 1 937.342 158.5)" fill="#8EC047" d="M1.2346-0.50352 5.26277 9.37331 2.79356 10.3803-1.2346 0.50352ZM8.28389 16.7809 12.312 26.6577 9.84284 27.6648 5.81468 17.788ZM15.3332 34.0654 19.3613 43.9422 16.8921 44.9492 12.864 35.0724ZM22.3825 51.3498 26.4106 61.2266 23.9414 62.2337 19.9132 52.3569ZM29.4317 68.6342 33.4599 78.5111 30.9907 79.5181 26.9625 69.6413ZM36.481 85.9187 40.5092 95.7955 38.04 96.8026 34.0118 86.9257ZM43.5453 96.1785C44.3795 98.224 43.3976 100.559 41.352 101.393 39.3065 102.227 36.9719 101.245 36.1377 99.1996 35.3034 97.154 36.2854 94.8195 38.3309 93.9852 40.3765 93.151 42.711 94.1329 43.5453 96.1785Z"/><path fill="#8EC047" d="M995.833 56.5 995.833 67.1667 993.167 67.1667 993.167 56.5001ZM995.833 75.1667 995.833 85.8334 993.167 85.8334 993.167 75.1667ZM998.5 93.7365C998.5 95.9456 996.709 97.7365 994.5 97.7365 992.291 97.7365 990.5 95.9456 990.5 93.7365 990.5 91.5274 992.291 89.7365 994.5 89.7365 996.709 89.7365 998.5 91.5273 998.5 93.7365Z"/><text transform="translate(960.377 47)" font-size="19" font-weight="400" font-family="Poppins,Poppins_MSFontService,sans-serif" fill="#8EC047">Metrics</text></g></svg>